<?xml version="1.0" encoding="UTF-8" ?>
<svg version="1.1" width="1800" height="1600" xmlns="http://www.w3.org/2000/svg" shape-rendering="crispEdges">
<rect x="600" y="0" width="100" height="100" fill="#000000" />
<rect x="600" y="100" width="100" height="100" fill="#37946E" />
<rect x="700" y="100" width="100" height="100" fill="#000000" />
<rect x="600" y="200" width="100" height="100" fill="#8A6F30" />
<rect x="700" y="200" width="100" height="100" fill="#37946E" />
<rect x="800" y="200" width="100" height="100" fill="#000000" />
<rect x="200" y="300" width="100" height="100" fill="#000000" />
<rect x="300" y="300" width="100" height="100" fill="#000000" />
<rect x="400" y="300" width="100" height="100" fill="#000000" />
<rect x="500" y="300" width="100" height="100" fill="#000000" />
<rect x="600" y="300" width="100" height="100" fill="#000000" />
<rect x="700" y="300" width="100" height="100" fill="#8A6F30" />
<rect x="800" y="300" width="100" height="100" fill="#000000" />
<rect x="200" y="400" width="100" height="100" fill="#37946E" />
<rect x="300" y="400" width="100" height="100" fill="#37946E" />
<rect x="400" y="400" width="100" height="100" fill="#37946E" />
<rect x="500" y="400" width="100" height="100" fill="#37946E" />
<rect x="600" y="400" width="100" height="100" fill="#37946E" />
<rect x="700" y="400" width="100" height="100" fill="#000000" />
<rect x="800" y="400" width="100" height="100" fill="#000000" />
<rect x="1000" y="400" width="100" height="100" fill="#000000" />
<rect x="1100" y="400" width="100" height="100" fill="#000000" />
<rect x="400" y="500" width="100" height="100" fill="#8A6F30" />
<rect x="500" y="500" width="100" height="100" fill="#8A6F30" />
<rect x="600" y="500" width="100" height="100" fill="#37946E" />
<rect x="700" y="500" width="100" height="100" fill="#4B692F" />
<rect x="800" y="500" width="100" height="100" fill="#000000" />
<rect x="900" y="500" width="100" height="100" fill="#663931" />
<rect x="1000" y="500" width="100" height="100" fill="#663931" />
<rect x="1100" y="500" width="100" height="100" fill="#8A6F30" />
<rect x="1200" y="500" width="100" height="100" fill="#000000" />
<rect x="1300" y="500" width="100" height="100" fill="#000000" />
<rect x="600" y="600" width="100" height="100" fill="#8A6F30" />
<rect x="700" y="600" width="100" height="100" fill="#8F974A" />
<rect x="800" y="600" width="100" height="100" fill="#663931" />
<rect x="900" y="600" width="100" height="100" fill="#8A6F30" />
<rect x="1000" y="600" width="100" height="100" fill="#8F974A" />
<rect x="1100" y="600" width="100" height="100" fill="#663931" />
<rect x="1200" y="600" width="100" height="100" fill="#99E550" />
<rect x="1300" y="600" width="100" height="100" fill="#99E550" />
<rect x="1400" y="600" width="100" height="100" fill="#000000" />
<rect x="400" y="700" width="100" height="100" fill="#000000" />
<rect x="500" y="700" width="100" height="100" fill="#000000" />
<rect x="600" y="700" width="100" height="100" fill="#99E550" />
<rect x="700" y="700" width="100" height="100" fill="#4B692F" />
<rect x="800" y="700" width="100" height="100" fill="#8A6F30" />
<rect x="900" y="700" width="100" height="100" fill="#8F974A" />
<rect x="1000" y="700" width="100" height="100" fill="#99E550" />
<rect x="1100" y="700" width="100" height="100" fill="#99E550" />
<rect x="1200" y="700" width="100" height="100" fill="#99E550" />
<rect x="1300" y="700" width="100" height="100" fill="#6ABE30" />
<rect x="1400" y="700" width="100" height="100" fill="#6ABE30" />
<rect x="1500" y="700" width="100" height="100" fill="#000000" />
<rect x="1600" y="700" width="100" height="100" fill="#000000" />
<rect x="300" y="800" width="100" height="100" fill="#000000" />
<rect x="400" y="800" width="100" height="100" fill="#99E550" />
<rect x="500" y="800" width="100" height="100" fill="#99E550" />
<rect x="600" y="800" width="100" height="100" fill="#99E550" />
<rect x="700" y="800" width="100" height="100" fill="#6ABE30" />
<rect x="800" y="800" width="100" height="100" fill="#000000" />
<rect x="900" y="800" width="100" height="100" fill="#000000" />
<rect x="1000" y="800" width="100" height="100" fill="#6ABE30" />
<rect x="1100" y="800" width="100" height="100" fill="#A1A1A1" />
<rect x="1200" y="800" width="100" height="100" fill="#000000" />
<rect x="1300" y="800" width="100" height="100" fill="#6ABE30" />
<rect x="1400" y="800" width="100" height="100" fill="#6ABE30" />
<rect x="1500" y="800" width="100" height="100" fill="#6ABE30" />
<rect x="1600" y="800" width="100" height="100" fill="#6ABE30" />
<rect x="1700" y="800" width="100" height="100" fill="#000000" />
<rect x="0" y="900" width="100" height="100" fill="#000000" />
<rect x="100" y="900" width="100" height="100" fill="#000000" />
<rect x="200" y="900" width="100" height="100" fill="#000000" />
<rect x="300" y="900" width="100" height="100" fill="#99E550" />
<rect x="400" y="900" width="100" height="100" fill="#6ABE30" />
<rect x="500" y="900" width="100" height="100" fill="#6ABE30" />
<rect x="600" y="900" width="100" height="100" fill="#6ABE30" />
<rect x="700" y="900" width="100" height="100" fill="#6ABE30" />
<rect x="800" y="900" width="100" height="100" fill="#4B692F" />
<rect x="900" y="900" width="100" height="100" fill="#6ABE30" />
<rect x="1000" y="900" width="100" height="100" fill="#6ABE30" />
<rect x="1100" y="900" width="100" height="100" fill="#FFFFFF" />
<rect x="1200" y="900" width="100" height="100" fill="#696A6A" />
<rect x="1300" y="900" width="100" height="100" fill="#6ABE30" />
<rect x="1400" y="900" width="100" height="100" fill="#6ABE30" />
<rect x="1500" y="900" width="100" height="100" fill="#524B24" />
<rect x="1600" y="900" width="100" height="100" fill="#6ABE30" />
<rect x="1700" y="900" width="100" height="100" fill="#000000" />
<rect x="0" y="1000" width="100" height="100" fill="#000000" />
<rect x="100" y="1000" width="100" height="100" fill="#6ABE30" />
<rect x="200" y="1000" width="100" height="100" fill="#6ABE30" />
<rect x="300" y="1000" width="100" height="100" fill="#6ABE30" />
<rect x="400" y="1000" width="100" height="100" fill="#6ABE30" />
<rect x="500" y="1000" width="100" height="100" fill="#6ABE30" />
<rect x="600" y="1000" width="100" height="100" fill="#6ABE30" />
<rect x="700" y="1000" width="100" height="100" fill="#6ABE30" />
<rect x="800" y="1000" width="100" height="100" fill="#6ABE30" />
<rect x="900" y="1000" width="100" height="100" fill="#000000" />
<rect x="1000" y="1000" width="100" height="100" fill="#6ABE30" />
<rect x="1100" y="1000" width="100" height="100" fill="#6ABE30" />
<rect x="1200" y="1000" width="100" height="100" fill="#6ABE30" />
<rect x="1300" y="1000" width="100" height="100" fill="#6ABE30" />
<rect x="1400" y="1000" width="100" height="100" fill="#6ABE30" />
<rect x="1500" y="1000" width="100" height="100" fill="#6ABE30" />
<rect x="1600" y="1000" width="100" height="100" fill="#000000" />
<rect x="100" y="1100" width="100" height="100" fill="#000000" />
<rect x="200" y="1100" width="100" height="100" fill="#6ABE30" />
<rect x="300" y="1100" width="100" height="100" fill="#6ABE30" />
<rect x="400" y="1100" width="100" height="100" fill="#6ABE30" />
<rect x="500" y="1100" width="100" height="100" fill="#6ABE30" />
<rect x="600" y="1100" width="100" height="100" fill="#6ABE30" />
<rect x="700" y="1100" width="100" height="100" fill="#000000" />
<rect x="800" y="1100" width="100" height="100" fill="#6ABE30" />
<rect x="900" y="1100" width="100" height="100" fill="#6ABE30" />
<rect x="1000" y="1100" width="100" height="100" fill="#000000" />
<rect x="1100" y="1100" width="100" height="100" fill="#000000" />
<rect x="1200" y="1100" width="100" height="100" fill="#000000" />
<rect x="1300" y="1100" width="100" height="100" fill="#000000" />
<rect x="1400" y="1100" width="100" height="100" fill="#000000" />
<rect x="1500" y="1100" width="100" height="100" fill="#000000" />
<rect x="200" y="1200" width="100" height="100" fill="#000000" />
<rect x="300" y="1200" width="100" height="100" fill="#6ABE30" />
<rect x="400" y="1200" width="100" height="100" fill="#6ABE30" />
<rect x="500" y="1200" width="100" height="100" fill="#6ABE30" />
<rect x="600" y="1200" width="100" height="100" fill="#000000" />
<rect x="700" y="1200" width="100" height="100" fill="#000000" />
<rect x="800" y="1200" width="100" height="100" fill="#99E550" />
<rect x="900" y="1200" width="100" height="100" fill="#6ABE30" />
<rect x="1000" y="1200" width="100" height="100" fill="#000000" />
<rect x="1100" y="1200" width="100" height="100" fill="#4B692F" />
<rect x="1200" y="1200" width="100" height="100" fill="#000000" />
<rect x="200" y="1300" width="100" height="100" fill="#000000" />
<rect x="300" y="1300" width="100" height="100" fill="#6ABE30" />
<rect x="400" y="1300" width="100" height="100" fill="#4B692F" />
<rect x="500" y="1300" width="100" height="100" fill="#000000" />
<rect x="700" y="1300" width="100" height="100" fill="#000000" />
<rect x="800" y="1300" width="100" height="100" fill="#99E550" />
<rect x="900" y="1300" width="100" height="100" fill="#99E550" />
<rect x="1000" y="1300" width="100" height="100" fill="#000000" />
<rect x="1100" y="1300" width="100" height="100" fill="#000000" />
<rect x="200" y="1400" width="100" height="100" fill="#000000" />
<rect x="300" y="1400" width="100" height="100" fill="#6ABE30" />
<rect x="400" y="1400" width="100" height="100" fill="#4B692F" />
<rect x="500" y="1400" width="100" height="100" fill="#000000" />
<rect x="800" y="1400" width="100" height="100" fill="#000000" />
<rect x="900" y="1400" width="100" height="100" fill="#000000" />
<rect x="300" y="1500" width="100" height="100" fill="#000000" />
<rect x="400" y="1500" width="100" height="100" fill="#000000" />
</svg>